<?xml version="1.0" encoding="iso-8859-1"?>
<!-- Uploaded to: SVG Repo, www.svgrepo.com, Generator: SVG Repo Mixer Tools -->
<svg fill="#000000" height="800px" width="800px" version="1.1" id="Layer_1" xmlns="http://www.w3.org/2000/svg" xmlns:xlink="http://www.w3.org/1999/xlink" 
	 viewBox="0 0 512 512" xml:space="preserve">
<g>
	<g>
		<path d="M490.667,53.333V32c0-11.782-9.551-21.333-21.333-21.333H384c-11.782,0-21.333,9.551-21.333,21.333v21.333
			c-11.782,0-21.333,9.551-21.333,21.333V160c0,11.782,9.551,21.333,21.333,21.333h42.667v128c0,28.466-8.093,55.144-22.082,77.856
			c0.49-4.552,0.749-9.174,0.749-13.856c0-70.683-57.317-128-128-128s-128,57.317-128,128c0,4.682,0.259,9.304,0.749,13.856
			c-13.989-22.712-22.082-49.39-22.082-77.856v-128h42.667c11.782,0,21.333-9.551,21.333-21.333V74.667
			c0-11.782-9.551-21.333-21.333-21.333V32c0-11.782-9.551-21.333-21.333-21.333H42.667c-11.782,0-21.333,9.551-21.333,21.333
			v21.333C9.551,53.333,0,62.885,0,74.667V160c0,11.782,9.551,21.333,21.333,21.333H64v128c0,104.54,84.552,190.172,188.684,191.958
			c1.102,0.028,2.208,0.042,3.316,0.042s2.214-0.014,3.316-0.042C363.448,499.505,448,413.873,448,309.333v-128h42.667
			c11.782,0,21.333-9.551,21.333-21.333V74.667C512,62.885,502.449,53.333,490.667,53.333z M42.667,96
			C54.449,96,64,86.449,64,74.667V53.333h42.667v21.333C106.667,86.449,116.218,96,128,96v42.667H42.667V96z M256,288
			c47.119,0,85.333,38.214,85.333,85.333S303.119,458.667,256,458.667s-85.333-38.214-85.333-85.333S208.881,288,256,288z
			 M469.333,138.667H384V96c11.782,0,21.333-9.551,21.333-21.333V53.333H448v21.333C448,86.449,457.551,96,469.333,96V138.667z"/>
	</g>
</g>
</svg>