<?xml version="1.0" encoding="utf-8"?>

<!DOCTYPE svg PUBLIC "-//W3C//DTD SVG 1.1//EN" "http://www.w3.org/Graphics/SVG/1.1/DTD/svg11.dtd">
<!-- Uploaded to: SVG Repo, www.svgrepo.com, Generator: SVG Repo Mixer Tools -->
<svg height="800px" width="800px" version="1.1" id="_x32_" xmlns="http://www.w3.org/2000/svg" xmlns:xlink="http://www.w3.org/1999/xlink" 
	 viewBox="0 0 512 512"  xml:space="preserve">
<style type="text/css">
	.st0{fill:#000000;}
</style>
<g>
	<path class="st0" d="M0,180.947l41.291,41.284c118.382-118.382,311.035-118.382,429.416,0L512,180.947
		C370.832,39.764,141.175,39.764,0,180.947z"/>
	<path class="st0" d="M53.681,234.621l41.284,41.292c88.774-88.774,233.296-88.774,322.054,0l41.309-41.292
		C346.752,123.053,165.24,123.053,53.681,234.621z"/>
	<path class="st0" d="M107.362,288.293l41.284,41.292c59.208-59.215,155.501-59.215,214.7,0l41.291-41.292
		C322.686,206.342,189.314,206.342,107.362,288.293z"/>
	<path class="st0" d="M161.035,341.974l41.291,41.284c29.6-29.6,77.739-29.6,107.346,0l41.292-41.284
		C298.612,289.623,213.387,289.623,161.035,341.974z"/>
	<path class="st0" d="M214.708,395.647L256,436.94l41.291-41.292C274.499,372.854,237.501,372.854,214.708,395.647z"/>
</g>
</svg>